<svg width="19" height="19" viewBox="0 0 19 19" fill="none" xmlns="http://www.w3.org/2000/svg">
<path d="M5.75 9.5H5C3.58579 9.5 2.87868 9.5 2.43934 9.93934C2 10.3787 2 11.0858 2 12.5V14C2 15.4142 2 16.1213 2.43934 16.5607C2.87868 17 3.58579 17 5 17H6.5C7.91421 17 8.62132 17 9.06066 16.5607C9.5 16.1213 9.5 15.4142 9.5 14V13.25" stroke="white" stroke-width="0.601775"/>
<path d="M9.5 5.75H8.75C7.33579 5.75 6.62868 5.75 6.18934 6.18934C5.75 6.62868 5.75 7.33579 5.75 8.75V10.25C5.75 11.6642 5.75 12.3713 6.18934 12.8107C6.62868 13.25 7.33579 13.25 8.75 13.25H10.25C11.6642 13.25 12.3713 13.25 12.8107 12.8107C13.25 12.3713 13.25 11.6642 13.25 10.25V9.5" stroke="white" stroke-width="0.601775"/>
<path d="M9.5 5C9.5 3.58579 9.5 2.87868 9.93934 2.43934C10.3787 2 11.0858 2 12.5 2H14C15.4142 2 16.1213 2 16.5607 2.43934C17 2.87868 17 3.58579 17 5V6.5C17 7.91421 17 8.62132 16.5607 9.06066C16.1213 9.5 15.4142 9.5 14 9.5H12.5C11.0858 9.5 10.3787 9.5 9.93934 9.06066C9.5 8.62132 9.5 7.91421 9.5 6.5V5Z" stroke="white" stroke-width="0.601775"/>
</svg>
