<svg width="24" height="25" viewBox="0 0 24 25" fill="none" xmlns="http://www.w3.org/2000/svg">
<path d="M11.492 3.28906H7.753C4.678 3.28906 2.75 5.46606 2.75 8.54806V16.8621C2.75 19.9441 4.669 22.1211 7.753 22.1211H16.577C19.662 22.1211 21.581 19.9441 21.581 16.8621V12.8341" stroke="#43495F" stroke-width="1.21875" stroke-linecap="round" stroke-linejoin="round"/>
<path fill-rule="evenodd" clip-rule="evenodd" d="M8.83056 11.4205L16.3036 3.9475C17.2346 3.0175 18.7436 3.0175 19.6746 3.9475L20.8916 5.1645C21.8226 6.0955 21.8226 7.6055 20.8916 8.5355L13.3826 16.0445C12.9756 16.4515 12.4236 16.6805 11.8476 16.6805H8.10156L8.19556 12.9005C8.20956 12.3445 8.43656 11.8145 8.83056 11.4205Z" stroke="#43495F" stroke-width="1.21875" stroke-linecap="round" stroke-linejoin="round"/>
<path d="M15.1641 5.10156L19.7301 9.66756" stroke="#43495F" stroke-width="1.21875" stroke-linecap="round" stroke-linejoin="round"/>
</svg>
