<svg width="14" height="15" viewBox="0 0 14 15" fill="none" xmlns="http://www.w3.org/2000/svg">
<path d="M1.48857 8.31756C1.3299 8.09998 1.25057 7.9909 1.19573 7.7809C1.15871 7.59391 1.15871 7.40147 1.19573 7.21448C1.25057 7.0039 1.3299 6.89481 1.48857 6.67781C2.35715 5.4849 4.26115 3.41406 7.00107 3.41406C9.74098 3.41406 11.645 5.4849 12.5136 6.67723C12.6722 6.89481 12.7516 7.0039 12.8064 7.2139C12.8434 7.40089 12.8434 7.59332 12.8064 7.78031C12.7516 7.9909 12.6722 8.09998 12.5136 8.31698C11.645 9.5099 9.74098 11.5807 7.00107 11.5807C4.26115 11.5807 2.35715 9.5099 1.48857 8.31756Z" stroke="#2B2F3D" stroke-width="1.5" stroke-linecap="round" stroke-linejoin="round"/>
<path d="M7.0026 8.66146C7.31202 8.66146 7.60877 8.53854 7.82756 8.31975C8.04635 8.10096 8.16927 7.80421 8.16927 7.49479C8.16927 7.18537 8.04635 6.88863 7.82756 6.66983C7.60877 6.45104 7.31202 6.32812 7.0026 6.32812C6.69318 6.32812 6.39644 6.45104 6.17765 6.66983C5.95885 6.88863 5.83594 7.18537 5.83594 7.49479C5.83594 7.80421 5.95885 8.10096 6.17765 8.31975C6.39644 8.53854 6.69318 8.66146 7.0026 8.66146Z" stroke="#2B2F3D" stroke-width="1.5" stroke-linecap="round" stroke-linejoin="round"/>
</svg>
