<svg width="19" height="19" viewBox="0 0 19 19" fill="none" xmlns="http://www.w3.org/2000/svg">
<path d="M2 9.51958C2 13.3793 4.90035 16.5597 8.63509 16.9897C9.18619 17.0532 9.72036 16.8182 10.1126 16.425C10.6027 15.9336 10.6027 15.1369 10.1126 14.6455C9.72036 14.2523 9.40059 13.6656 9.69641 13.1951C10.8789 11.3144 17 15.6335 17 9.51958C17 5.36663 13.6421 2 9.5 2C5.35786 2 2 5.36663 2 9.51958Z" stroke="white" stroke-width="0.601775"/>
<path d="M13.625 8.30078C14.0801 8.30078 14.4492 8.66986 14.4492 9.125C14.4492 9.58014 14.0801 9.94922 13.625 9.94922C13.1699 9.94922 12.8008 9.58014 12.8008 9.125C12.8008 8.66986 13.1699 8.30078 13.625 8.30078Z" stroke="white" stroke-width="0.601775"/>
<circle cx="5.375" cy="9.125" r="0.824112" stroke="white" stroke-width="0.601775"/>
<path d="M7.6875 4.92578C8.14264 4.92578 8.51172 5.29486 8.51172 5.75C8.51172 6.20514 8.14264 6.57422 7.6875 6.57422C7.23236 6.57422 6.86328 6.20514 6.86328 5.75C6.86328 5.29486 7.23236 4.92578 7.6875 4.92578Z" stroke="white" stroke-width="0.601775"/>
<path d="M11.375 4.92578C11.8301 4.92578 12.1992 5.29486 12.1992 5.75C12.1992 6.20514 11.8301 6.57422 11.375 6.57422C10.9199 6.57422 10.5508 6.20514 10.5508 5.75C10.5508 5.29486 10.9199 4.92578 11.375 4.92578Z" stroke="white" stroke-width="0.601775"/>
</svg>
