<svg width="19" height="19" viewBox="0 0 19 19" fill="none" xmlns="http://www.w3.org/2000/svg">
<path d="M2.75 8C2.75 5.17157 2.75 3.75736 3.62868 2.87868C4.50736 2 5.92157 2 8.75 2H10.25C13.0784 2 14.4926 2 15.3713 2.87868C16.25 3.75736 16.25 5.17157 16.25 8V11C16.25 13.8284 16.25 15.2426 15.3713 16.1213C14.4926 17 13.0784 17 10.25 17H8.75C5.92157 17 4.50736 17 3.62868 16.1213C2.75 15.2426 2.75 13.8284 2.75 11V8Z" stroke="white" stroke-width="0.601775"/>
<path d="M6.5 8H12.5" stroke="white" stroke-width="0.601775" stroke-linecap="round"/>
<path d="M6.5 11H10.25" stroke="white" stroke-width="0.601775" stroke-linecap="round"/>
</svg>
