<svg width="24" height="24" viewBox="0 0 24 24" fill="none" xmlns="http://www.w3.org/2000/svg">
<path fill-rule="evenodd" clip-rule="evenodd" d="M11.9388 1.25H12.0628C14.0768 1.25 15.6658 1.25 16.8228 1.403C17.9618 1.553 18.9838 1.883 19.4688 2.826C19.5394 2.962 19.5984 3.10267 19.6458 3.248C19.9768 4.258 19.4868 5.214 18.7888 6.118C18.0788 7.037 16.9548 8.15 15.5308 9.56L13.0668 12L15.5308 14.44C16.9548 15.85 18.0788 16.963 18.7888 17.882C19.4868 18.786 19.9768 19.742 19.6458 20.752C19.5976 20.897 19.5384 21.038 19.4688 21.174C18.9838 22.117 17.9618 22.447 16.8238 22.597C15.6658 22.75 14.0768 22.75 12.0638 22.75H11.9388C9.92478 22.75 8.33578 22.75 7.17778 22.597C6.03978 22.447 5.01778 22.117 4.53178 21.174C4.46246 21.038 4.40362 20.8969 4.35578 20.752C4.02478 19.742 4.51478 18.786 5.21278 17.882C5.92278 16.963 7.04678 15.85 8.47078 14.44L10.9348 12L8.47078 9.56C7.04678 8.15 5.92278 7.037 5.21278 6.118C4.51478 5.214 4.02478 4.258 4.35578 3.248C4.40378 3.10267 4.46245 2.962 4.53178 2.826C5.01778 1.883 6.03978 1.553 7.17778 1.403C8.33578 1.25 9.92578 1.25 11.9388 1.25ZM12.0008 10.945L14.4308 8.538C15.9088 7.075 16.9608 6.031 17.6008 5.201C18.2628 4.345 18.2978 3.953 18.2208 3.715C18.1978 3.64555 18.1693 3.57801 18.1358 3.513C18.0188 3.286 17.7068 3.032 16.6278 2.89C15.5798 2.752 14.0908 2.75 12.0008 2.75C9.91078 2.75 8.42078 2.752 7.37378 2.89C6.29378 3.032 5.98278 3.286 5.86578 3.513C5.83221 3.57801 5.80379 3.64555 5.78078 3.715C5.70378 3.953 5.73878 4.345 6.40078 5.201C7.04078 6.031 8.09278 7.075 9.57078 8.538L12.0008 10.945ZM12.0008 13.055L9.57078 15.462C8.09278 16.925 7.04078 17.969 6.40078 18.799C5.73878 19.655 5.70378 20.048 5.78078 20.285C5.80345 20.355 5.83178 20.4223 5.86578 20.487C5.98278 20.714 6.29478 20.968 7.37378 21.11C8.42178 21.248 9.91078 21.25 12.0008 21.25C14.0908 21.25 15.5808 21.248 16.6278 21.11C17.7078 20.968 18.0188 20.714 18.1358 20.487C18.1691 20.4223 18.1974 20.355 18.2208 20.285C18.2978 20.047 18.2628 19.655 17.6008 18.799C16.9608 17.969 15.9088 16.925 14.4308 15.462L12.0008 13.055Z" fill="#03A4AA"/>
</svg>
