<svg width="24" height="24" viewBox="0 0 24 24" fill="none" xmlns="http://www.w3.org/2000/svg">
<path fill-rule="evenodd" clip-rule="evenodd" d="M9.559 21.4523C5.887 21.4523 2.75 20.8973 2.75 18.6733C2.75 16.4493 5.867 14.4453 9.559 14.4453C13.231 14.4453 16.367 16.4303 16.367 18.6533C16.367 20.8763 13.251 21.4523 9.559 21.4523Z" stroke="#757FA6" stroke-width="1.5" stroke-linecap="round" stroke-linejoin="round"/>
<path fill-rule="evenodd" clip-rule="evenodd" d="M9.55934 11.2749C11.9693 11.2749 13.9233 9.32087 13.9233 6.91087C13.9233 4.50087 11.9693 2.54688 9.55934 2.54688C7.14934 2.54688 5.19534 4.50087 5.19534 6.91087C5.18634 9.31287 7.12734 11.2669 9.52834 11.2749H9.55934Z" stroke="#757FA6" stroke-width="1.5" stroke-linecap="round" stroke-linejoin="round"/>
<path d="M16.8003 10.0767C18.2033 9.70169 19.2373 8.42269 19.2373 6.90069C19.2383 5.31269 18.1113 3.98669 16.6133 3.67969" stroke="#757FA6" stroke-width="1.5" stroke-linecap="round" stroke-linejoin="round"/>
<path d="M17.4609 13.6484C19.4489 13.6484 21.1469 14.9964 21.1469 16.1994C21.1469 16.9084 20.5619 17.6364 19.6719 17.8454" stroke="#757FA6" stroke-width="1.5" stroke-linecap="round" stroke-linejoin="round"/>
</svg>
